<svg width="338" height="62" viewBox="0 0 338 62" fill="none" xmlns="http://www.w3.org/2000/svg">
<path d="M34.0352 31.8828C34.9961 31.8828 35.6758 32.0586 36.0742 32.4102C36.4727 32.7617 36.6719 33.3477 36.6719 34.168V44.6094C36.6719 45.4766 36.4961 46.0977 36.1445 46.4727C35.8164 46.8242 35.2539 47 34.457 47H3.02734C2.23047 47 1.65625 46.8242 1.30469 46.4727C0.976562 46.0977 0.8125 45.4766 0.8125 44.6094C0.8125 43.7422 0.976562 43.1328 1.30469 42.7812C1.65625 42.4062 2.23047 42.2188 3.02734 42.2188H6.61328V10.0508H3.02734C2.23047 10.0508 1.65625 9.875 1.30469 9.52344C0.976562 9.14844 0.8125 8.52734 0.8125 7.66016C0.8125 6.79297 0.976562 6.18359 1.30469 5.83203C1.65625 5.45703 2.23047 5.26953 3.02734 5.26953H33.7539C34.5508 5.26953 35.1133 5.45703 35.4414 5.83203C35.793 6.18359 35.9688 6.79297 35.9688 7.66016V16.5898C35.9688 17.4102 35.7695 17.9961 35.3711 18.3477C34.9727 18.6992 34.293 18.875 33.332 18.875C32.3711 18.875 31.6914 18.6992 31.293 18.3477C30.8945 17.9961 30.6953 17.4102 30.6953 16.5898V10.0508H11.8867V23.0938H20.957V19.8945C20.957 19.0742 21.1328 18.4883 21.4844 18.1367C21.8594 17.7852 22.5156 17.6094 23.4531 17.6094C24.3906 17.6094 25.0352 17.7852 25.3867 18.1367C25.7617 18.4883 25.9492 19.0742 25.9492 19.8945V31.0742C25.9492 31.8945 25.7617 32.4805 25.3867 32.832C25.0352 33.1836 24.3906 33.3594 23.4531 33.3594C22.5156 33.3594 21.8594 33.1836 21.4844 32.832C21.1328 32.4805 20.957 31.8945 20.957 31.0742V27.875H11.8867V42.2188H31.3984V34.168C31.3984 33.3477 31.5977 32.7617 31.9961 32.4102C32.3945 32.0586 33.0742 31.8828 34.0352 31.8828ZM62.8984 13.7422C67.3047 13.7422 70.6094 14.7266 72.8125 16.6953C75.0156 18.6641 76.1172 21.582 76.1172 25.4492V39.4414C76.1172 41.293 76.8906 42.2188 78.4375 42.2188H79.668C80.4648 42.2188 81.0273 42.4062 81.3555 42.7812C81.707 43.1328 81.8828 43.7422 81.8828 44.6094C81.8828 45.4766 81.707 46.0977 81.3555 46.4727C81.0273 46.8242 80.4648 47 79.668 47H77.418C75.8945 47 74.582 46.625 73.4805 45.875C72.4023 45.1016 71.6992 43.9766 71.3711 42.5C69.4492 44.1875 67.3633 45.4883 65.1133 46.4023C62.8867 47.3164 60.5195 47.7734 58.0117 47.7734C55.6445 47.7734 53.5469 47.375 51.7188 46.5781C49.9141 45.7578 48.4961 44.5742 47.4648 43.0273C46.4336 41.4805 45.918 39.6406 45.918 37.5078C45.918 33.8047 47.2422 31.0742 49.8906 29.3164C52.5391 27.5352 55.9609 26.6445 60.1562 26.6445C63.8828 26.6445 67.4453 27.2422 70.8438 28.4375V25.4492C70.8438 23.1758 70.1992 21.5117 68.9102 20.457C67.6445 19.3789 65.5938 18.8398 62.7578 18.8398C61 18.8398 59.1719 19.0859 57.2734 19.5781C55.375 20.0703 53.5703 20.75 51.8594 21.6172C51.4609 21.8281 51.0977 21.9336 50.7695 21.9336C49.9961 21.9336 49.3516 21.3711 48.8359 20.2461C48.5781 19.6836 48.4492 19.2148 48.4492 18.8398C48.4492 18.0195 48.8828 17.3867 49.75 16.9414C51.7188 15.9102 53.8281 15.125 56.0781 14.5859C58.3516 14.0234 60.625 13.7422 62.8984 13.7422ZM60.1914 31.6016C57.4961 31.6016 55.3633 32.0703 53.793 33.0078C52.2461 33.9219 51.4727 35.3867 51.4727 37.4023C51.4727 39.1133 52.0586 40.4492 53.2305 41.4102C54.4258 42.3477 56.0898 42.8164 58.2227 42.8164C62.8867 42.8164 67.0938 40.8828 70.8438 37.0156V33.1836C69.25 32.668 67.5391 32.2812 65.7109 32.0234C63.8828 31.7422 62.043 31.6016 60.1914 31.6016ZM117.004 13.7422C117.965 13.7422 118.645 13.918 119.043 14.2695C119.441 14.6211 119.641 15.207 119.641 16.0273V22.707C119.641 23.5273 119.441 24.1133 119.043 24.4648C118.645 24.8164 117.965 24.9922 117.004 24.9922C116.207 24.9922 115.645 24.6875 115.316 24.0781C114.309 22.1562 112.844 20.8086 110.922 20.0352C109 19.2383 106.562 18.8398 103.609 18.8398C101.336 18.8398 99.5547 19.25 98.2656 20.0703C97 20.8672 96.3672 21.9922 96.3672 23.4453C96.3672 24.1953 96.6016 24.8047 97.0703 25.2734C97.5625 25.7422 98.2773 26.1289 99.2148 26.4336C99.9883 26.6914 100.879 26.8906 101.887 27.0312C102.918 27.1719 104.242 27.3242 105.859 27.4883C108.133 27.7461 109.961 27.9922 111.344 28.2266C112.75 28.4375 114.074 28.7656 115.316 29.2109C117.191 29.8906 118.645 30.875 119.676 32.1641C120.73 33.4531 121.258 35.1523 121.258 37.2617C121.258 39.3711 120.719 41.2227 119.641 42.8164C118.586 44.3867 117.027 45.6055 114.965 46.4727C112.926 47.3398 110.477 47.7734 107.617 47.7734C105.086 47.7734 102.859 47.4219 100.938 46.7188C99.0156 46.0156 97.3398 44.9492 95.9102 43.5195V45.4883C95.9102 46.3086 95.7109 46.8945 95.3125 47.2461C94.9141 47.5977 94.2344 47.7734 93.2734 47.7734C92.3125 47.7734 91.6328 47.5977 91.2344 47.2461C90.8359 46.8945 90.6367 46.3086 90.6367 45.4883V37.0508C90.6367 36.2305 90.8359 35.6445 91.2344 35.293C91.6328 34.9414 92.3125 34.7656 93.2734 34.7656C93.7656 34.7656 94.1523 34.8828 94.4336 35.1172C94.7148 35.3281 94.9609 35.6914 95.1719 36.207C96.0156 38.457 97.4219 40.0977 99.3906 41.1289C101.359 42.1602 103.984 42.6758 107.266 42.6758C109.984 42.6758 112.07 42.1836 113.523 41.1992C114.977 40.2148 115.703 38.9023 115.703 37.2617C115.703 36.4648 115.445 35.8086 114.93 35.293C114.414 34.7773 113.676 34.3555 112.715 34.0273C111.895 33.7695 110.945 33.5586 109.867 33.3945C108.812 33.207 107.465 33.0312 105.824 32.8672C103.621 32.6328 101.781 32.3867 100.305 32.1289C98.8281 31.8711 97.4688 31.4961 96.2266 31.0039C94.5156 30.3242 93.1797 29.3867 92.2188 28.1914C91.2812 26.9727 90.8125 25.3906 90.8125 23.4453C90.8125 21.4062 91.3398 19.6602 92.3945 18.207C93.4727 16.7305 94.9492 15.6172 96.8242 14.8672C98.7227 14.1172 100.867 13.7422 103.258 13.7422C105.531 13.7422 107.605 14.082 109.48 14.7617C111.379 15.4414 113.008 16.3906 114.367 17.6094V16.0273C114.367 15.207 114.566 14.6211 114.965 14.2695C115.363 13.918 116.043 13.7422 117.004 13.7422ZM166.715 14.5156C167.512 14.5156 168.074 14.7031 168.402 15.0781C168.754 15.4297 168.93 16.0391 168.93 16.9062C168.93 17.7734 168.754 18.3945 168.402 18.7695C168.074 19.1211 167.512 19.2969 166.715 19.2969H164.535L150.156 48.7578C148.633 51.875 147.145 54.3242 145.691 56.1055C144.238 57.8867 142.598 59.1875 140.77 60.0078C138.965 60.8516 136.762 61.3203 134.16 61.4141C133.34 61.4375 132.707 61.2266 132.262 60.7812C131.816 60.3594 131.594 59.5977 131.594 58.4961C131.594 56.9727 132.215 56.1758 133.457 56.1055C135.707 55.9883 137.488 55.6133 138.801 54.9805C140.137 54.3477 141.355 53.2578 142.457 51.7109C143.582 50.1875 144.953 47.7969 146.57 44.5391L133.703 19.2969H131.488C130.691 19.2969 130.117 19.1211 129.766 18.7695C129.438 18.3945 129.273 17.7734 129.273 16.9062C129.273 16.0391 129.438 15.4297 129.766 15.0781C130.117 14.7031 130.691 14.5156 131.488 14.5156H143.934C144.73 14.5156 145.293 14.7031 145.621 15.0781C145.973 15.4297 146.148 16.0391 146.148 16.9062C146.148 17.7734 145.973 18.3945 145.621 18.7695C145.293 19.1211 144.73 19.2969 143.934 19.2969H139.434L149.348 39.0547L158.805 19.2969H155.676C154.879 19.2969 154.305 19.1211 153.953 18.7695C153.625 18.3945 153.461 17.7734 153.461 16.9062C153.461 16.0391 153.625 15.4297 153.953 15.0781C154.305 14.7031 154.879 14.5156 155.676 14.5156H166.715ZM205.809 4.49609C206.77 4.49609 207.449 4.67188 207.848 5.02344C208.246 5.375 208.445 5.96094 208.445 6.78125V18.3828C208.445 19.2031 208.246 19.7891 207.848 20.1406C207.449 20.4922 206.77 20.668 205.809 20.668C204.848 20.668 204.168 20.4922 203.77 20.1406C203.371 19.7891 203.172 19.2031 203.172 18.3828C203.172 16.7891 202.809 15.3359 202.082 14.0234C201.379 12.7109 200.289 11.668 198.812 10.8945C197.336 10.0977 195.508 9.69922 193.328 9.69922C190.797 9.69922 188.547 10.3672 186.578 11.7031C184.633 13.0391 183.109 14.9492 182.008 17.4336C180.93 19.918 180.391 22.8242 180.391 26.1523C180.391 29.4805 180.906 32.3867 181.938 34.8711C182.969 37.332 184.434 39.2305 186.332 40.5664C188.23 41.9023 190.445 42.5703 192.977 42.5703C195.297 42.5703 197.512 42.2305 199.621 41.5508C201.73 40.8711 203.629 39.8867 205.316 38.5977C205.715 38.2695 206.148 38.1055 206.617 38.1055C207.32 38.1055 207.941 38.5625 208.48 39.4766C208.902 40.1797 209.113 40.8008 209.113 41.3398C209.113 42.043 208.75 42.6523 208.023 43.168C205.844 44.6914 203.465 45.8398 200.887 46.6133C198.332 47.3867 195.695 47.7734 192.977 47.7734C189.32 47.7734 186.121 46.8828 183.379 45.1016C180.66 43.2969 178.551 40.7656 177.051 37.5078C175.574 34.25 174.836 30.4648 174.836 26.1523C174.836 21.8633 175.598 18.0898 177.121 14.832C178.645 11.5508 180.777 9.00781 183.52 7.20312C186.285 5.39844 189.438 4.49609 192.977 4.49609C195.18 4.49609 197.137 4.87109 198.848 5.62109C200.559 6.37109 202 7.4375 203.172 8.82031V6.78125C203.172 5.96094 203.371 5.375 203.77 5.02344C204.168 4.67188 204.848 4.49609 205.809 4.49609ZM235.586 13.7422C239.992 13.7422 243.297 14.7266 245.5 16.6953C247.703 18.6641 248.805 21.582 248.805 25.4492V39.4414C248.805 41.293 249.578 42.2188 251.125 42.2188H252.355C253.152 42.2188 253.715 42.4062 254.043 42.7812C254.395 43.1328 254.57 43.7422 254.57 44.6094C254.57 45.4766 254.395 46.0977 254.043 46.4727C253.715 46.8242 253.152 47 252.355 47H250.105C248.582 47 247.27 46.625 246.168 45.875C245.09 45.1016 244.387 43.9766 244.059 42.5C242.137 44.1875 240.051 45.4883 237.801 46.4023C235.574 47.3164 233.207 47.7734 230.699 47.7734C228.332 47.7734 226.234 47.375 224.406 46.5781C222.602 45.7578 221.184 44.5742 220.152 43.0273C219.121 41.4805 218.605 39.6406 218.605 37.5078C218.605 33.8047 219.93 31.0742 222.578 29.3164C225.227 27.5352 228.648 26.6445 232.844 26.6445C236.57 26.6445 240.133 27.2422 243.531 28.4375V25.4492C243.531 23.1758 242.887 21.5117 241.598 20.457C240.332 19.3789 238.281 18.8398 235.445 18.8398C233.688 18.8398 231.859 19.0859 229.961 19.5781C228.062 20.0703 226.258 20.75 224.547 21.6172C224.148 21.8281 223.785 21.9336 223.457 21.9336C222.684 21.9336 222.039 21.3711 221.523 20.2461C221.266 19.6836 221.137 19.2148 221.137 18.8398C221.137 18.0195 221.57 17.3867 222.438 16.9414C224.406 15.9102 226.516 15.125 228.766 14.5859C231.039 14.0234 233.312 13.7422 235.586 13.7422ZM232.879 31.6016C230.184 31.6016 228.051 32.0703 226.48 33.0078C224.934 33.9219 224.16 35.3867 224.16 37.4023C224.16 39.1133 224.746 40.4492 225.918 41.4102C227.113 42.3477 228.777 42.8164 230.91 42.8164C235.574 42.8164 239.781 40.8828 243.531 37.0156V33.1836C241.938 32.668 240.227 32.2812 238.398 32.0234C236.57 31.7422 234.73 31.6016 232.879 31.6016ZM279.531 0.875C280.328 0.875 280.891 1.0625 281.219 1.4375C281.57 1.78906 281.746 2.39844 281.746 3.26562V42.2188H293.031C293.828 42.2188 294.391 42.4062 294.719 42.7812C295.07 43.1328 295.246 43.7422 295.246 44.6094C295.246 45.4766 295.07 46.0977 294.719 46.4727C294.391 46.8242 293.828 47 293.031 47H265.469C264.672 47 264.098 46.8242 263.746 46.4727C263.418 46.0977 263.254 45.4766 263.254 44.6094C263.254 43.7422 263.418 43.1328 263.746 42.7812C264.098 42.4062 264.672 42.2188 265.469 42.2188H276.473V5.65625H266.875C266.078 5.65625 265.504 5.48047 265.152 5.12891C264.824 4.75391 264.66 4.13281 264.66 3.26562C264.66 2.39844 264.824 1.78906 265.152 1.4375C265.504 1.0625 266.078 0.875 266.875 0.875H279.531ZM334.445 13.7422C335.406 13.7422 336.086 13.918 336.484 14.2695C336.883 14.6211 337.082 15.207 337.082 16.0273V26.2227C337.082 27.043 336.883 27.6289 336.484 27.9805C336.086 28.332 335.406 28.5078 334.445 28.5078C333.484 28.5078 332.805 28.332 332.406 27.9805C332.008 27.6289 331.809 27.043 331.809 26.2227C331.809 24.793 331.434 23.5273 330.684 22.4258C329.934 21.3242 328.809 20.4688 327.309 19.8594C325.832 19.25 324.051 18.9453 321.965 18.9453C319.715 18.9453 317.699 19.4492 315.918 20.457C314.137 21.4648 312.742 22.8711 311.734 24.6758C310.727 26.4805 310.223 28.5078 310.223 30.7578C310.223 33.0312 310.691 35.0703 311.629 36.875C312.59 38.6562 313.926 40.0508 315.637 41.0586C317.371 42.0664 319.363 42.5703 321.613 42.5703C323.77 42.5703 325.855 42.2422 327.871 41.5859C329.91 40.9062 331.762 39.9336 333.426 38.668C333.918 38.293 334.375 38.1055 334.797 38.1055C335.477 38.1055 336.109 38.5859 336.695 39.5469C337.047 40.1328 337.223 40.6953 337.223 41.2344C337.223 42.0547 336.848 42.7344 336.098 43.2734C334.223 44.6797 332.008 45.7812 329.453 46.5781C326.898 47.375 324.285 47.7734 321.613 47.7734C318.262 47.7734 315.297 47.0352 312.719 45.5586C310.164 44.082 308.184 42.0547 306.777 39.4766C305.371 36.8984 304.668 33.9922 304.668 30.7578C304.668 27.5234 305.383 24.6172 306.812 22.0391C308.242 19.4609 310.234 17.4336 312.789 15.957C315.367 14.4805 318.309 13.7422 321.613 13.7422C323.699 13.7422 325.609 14.1289 327.344 14.9023C329.102 15.6523 330.59 16.7305 331.809 18.1367V16.0273C331.809 15.207 332.008 14.6211 332.406 14.2695C332.805 13.918 333.484 13.7422 334.445 13.7422Z" fill="black"/>
</svg>
